<?xml version="1.0" encoding="UTF-8" standalone="no"?>
<!DOCTYPE svg PUBLIC "-//W3C//DTD SVG 1.1//EN"
 "http://www.w3.org/Graphics/SVG/1.1/DTD/svg11.dtd">
<!-- Generated by graphviz version 2.36.0 (20140111.2315)
 -->
<!-- Title: G Pages: 1 -->
<svg width="314pt" height="708pt"
 viewBox="0.00 0.00 314.00 708.00" xmlns="http://www.w3.org/2000/svg" xmlns:xlink="http://www.w3.org/1999/xlink">
<g id="graph0" class="graph" transform="scale(1 1) rotate(0) translate(4 704)">
<title>G</title>
<polygon fill="white" stroke="none" points="-4,4 -4,-704 310,-704 310,4 -4,4"/>
<!-- 30&#45;&gt;14 -->
<g id="edge1" class="edge"><title>30:27&#45;&gt;14:9</title>
<path fill="none" stroke="black" d="M81,-342C81,-357.295 83.54,-363.331 84.5719,-374.864"/>
<polygon fill="black" stroke="black" points="81.0811,-375.157 85,-385 88.0748,-374.861 81.0811,-375.157"/>
</g>
<!-- 30&#45;&gt;14 -->
<g id="edge2" class="edge"><title>30:28&#45;&gt;14:10</title>
<path fill="none" stroke="black" d="M122,-342C122,-357.246 123.27,-363.35 123.786,-374.882"/>
<polygon fill="black" stroke="black" points="120.289,-375.076 124,-385 127.288,-374.928 120.289,-375.076"/>
</g>
<!-- 30&#45;&gt;14 -->
<g id="edge3" class="edge"><title>30:29&#45;&gt;14:11</title>
<path fill="none" stroke="black" d="M164,-342C164,-357.246 162.73,-363.35 162.214,-374.882"/>
<polygon fill="black" stroke="black" points="158.712,-374.928 162,-385 165.711,-375.076 158.712,-374.928"/>
</g>
<!-- 14&#45;&gt;2 -->
<g id="edge9" class="edge"><title>14:13&#45;&gt;2:0</title>
<path fill="none" stroke="black" d="M85,-476C85,-491.229 85,-497.357 85,-508.888"/>
<polygon fill="black" stroke="black" points="81.5001,-509 85,-519 88.5001,-509 81.5001,-509"/>
</g>
<!-- 23&#45;&gt;14 -->
<g id="edge4" class="edge"><title>23:22&#45;&gt;14:12</title>
<path fill="none" stroke="black" d="M263,-342C263,-372.253 213.121,-355.896 201.431,-375.224"/>
<polygon fill="black" stroke="black" points="198.016,-374.451 199,-385 204.81,-376.14 198.016,-374.451"/>
</g>
<!-- 20&#45;&gt;30 -->
<g id="edge5" class="edge"><title>20:19&#45;&gt;30:26</title>
<path fill="none" stroke="black" d="M252,-198C252,-239.733 178.475,-211.308 165.838,-240.983"/>
<polygon fill="black" stroke="black" points="162.362,-240.533 164,-251 169.247,-241.796 162.362,-240.533"/>
</g>
<!-- 20&#45;&gt;23 -->
<g id="edge6" class="edge"><title>20:19&#45;&gt;23:21</title>
<path fill="none" stroke="black" d="M252,-198C252,-218.299 259.831,-224.948 262.278,-240.981"/>
<polygon fill="black" stroke="black" points="258.79,-241.277 263,-251 265.772,-240.774 258.79,-241.277"/>
</g>
<!-- 18&#45;&gt;8 -->
<g id="edge7" class="edge"><title>18:17&#45;&gt;8:6</title>
<path fill="none" stroke="black" d="M133,-74C133,-89.2292 133,-95.3565 133,-106.888"/>
<polygon fill="black" stroke="black" points="129.5,-107 133,-117 136.5,-107 129.5,-107"/>
</g>
<!-- 8&#45;&gt;30 -->
<g id="edge10" class="edge"><title>8:7&#45;&gt;30:25</title>
<path fill="none" stroke="black" d="M133,-208C133,-223.874 125.877,-229.271 123.095,-241.052"/>
<polygon fill="black" stroke="black" points="119.615,-240.677 122,-251 126.573,-241.443 119.615,-240.677"/>
</g>
<!-- 16&#45;&gt;5 -->
<g id="edge8" class="edge"><title>16:15&#45;&gt;5:3</title>
<path fill="none" stroke="black" d="M36,-74C36,-89.2292 36,-95.3565 36,-106.888"/>
<polygon fill="black" stroke="black" points="32.5001,-107 36,-117 39.5001,-107 32.5001,-107"/>
</g>
<!-- 5&#45;&gt;30 -->
<g id="edge11" class="edge"><title>5:4&#45;&gt;30:24</title>
<path fill="none" stroke="black" d="M36,-208C36,-231.557 68.6321,-226.115 78.3198,-241.063"/>
<polygon fill="black" stroke="black" points="75.0165,-242.257 81,-251 81.775,-240.434 75.0165,-242.257"/>
</g>
<!-- 2&#45;&gt;Result1 -->
<g id="edge12" class="edge"><title>2:1&#45;&gt;Result1</title>
<path fill="none" stroke="black" stroke-dasharray="5,2" d="M85,-610C85,-623.222 85,-637.981 85,-649.991"/>
</g>
<!-- 30 -->
<g id="node1" class="node"><title>30</title>
<polygon fill="none" stroke="black" points="205.5,-345.5 44.5,-345.5 44.5,-248.5 205.5,-248.5 205.5,-345.5"/>
<text text-anchor="start" x="55.25" y="-326.3" font-family="Times,serif" font-size="14.00"> &#160;&#160;</text>
<polygon fill="none" stroke="black" points="68,-320 68,-341 95,-341 95,-320 68,-320"/>
<text text-anchor="start" x="71" y="-326.3" font-family="Times,serif" font-size="14.00"> o1 </text>
<text text-anchor="start" x="96.75" y="-326.3" font-family="Times,serif" font-size="14.00"> &#160;&#160;</text>
<polygon fill="none" stroke="black" points="109,-320 109,-341 136,-341 136,-320 109,-320"/>
<text text-anchor="start" x="112" y="-326.3" font-family="Times,serif" font-size="14.00"> o2 </text>
<text text-anchor="start" x="137.75" y="-326.3" font-family="Times,serif" font-size="14.00"> &#160;&#160;</text>
<polygon fill="none" stroke="black" points="150,-320 150,-341 177,-341 177,-320 150,-320"/>
<text text-anchor="start" x="153" y="-326.3" font-family="Times,serif" font-size="14.00"> o3 </text>
<text text-anchor="start" x="178.75" y="-326.3" font-family="Times,serif" font-size="14.00"> &#160;&#160;</text>
<polygon fill="none" stroke="black" points="53,-272 53,-320 191,-320 191,-272 53,-272"/>
<text text-anchor="start" x="120.25" y="-305.8" font-family="Times,serif" font-size="14.00"> </text>
<text text-anchor="start" x="95.1655" y="-291.8" font-family="Times,serif" font-size="14.00">A664sw1</text>
<text text-anchor="start" x="120.25" y="-277.8" font-family="Times,serif" font-size="14.00"> </text>
<text text-anchor="start" x="192.75" y="-299.3" font-family="Times,serif" font-size="14.00"> </text>
<text text-anchor="start" x="192.75" y="-278.3" font-family="Times,serif" font-size="14.00"> </text>
<text text-anchor="start" x="55.25" y="-257.8" font-family="Times,serif" font-size="14.00"> &#160;&#160;</text>
<polygon fill="none" stroke="black" points="68,-252 68,-272 95,-272 95,-252 68,-252"/>
<text text-anchor="start" x="72.5552" y="-257.8" font-family="Times,serif" font-size="14.00"> i1 </text>
<text text-anchor="start" x="96.75" y="-257.8" font-family="Times,serif" font-size="14.00"> &#160;&#160;</text>
<polygon fill="none" stroke="black" points="109,-252 109,-272 136,-272 136,-252 109,-252"/>
<text text-anchor="start" x="113.555" y="-257.8" font-family="Times,serif" font-size="14.00"> i2 </text>
<text text-anchor="start" x="137.75" y="-257.8" font-family="Times,serif" font-size="14.00"> &#160;&#160;</text>
<polygon fill="none" stroke="black" points="150,-252 150,-272 177,-272 177,-252 150,-252"/>
<text text-anchor="start" x="154.555" y="-257.8" font-family="Times,serif" font-size="14.00"> i3 </text>
<text text-anchor="start" x="178.75" y="-257.8" font-family="Times,serif" font-size="14.00"> &#160;&#160;</text>
</g>
<!-- 14 -->
<g id="node2" class="node"><title>14</title>
<polygon fill="none" stroke="black" points="239,-479.5 49,-479.5 49,-382.5 239,-382.5 239,-479.5"/>
<text text-anchor="start" x="59.25" y="-460.3" font-family="Times,serif" font-size="14.00"> &#160;&#160;</text>
<polygon fill="none" stroke="black" points="72,-454 72,-475 99,-475 99,-454 72,-454"/>
<text text-anchor="start" x="75" y="-460.3" font-family="Times,serif" font-size="14.00"> o1 </text>
<text text-anchor="start" x="100.75" y="-460.3" font-family="Times,serif" font-size="14.00"> &#160;&#160;</text>
<polygon fill="none" stroke="black" points="57,-406 57,-454 224,-454 224,-406 57,-406"/>
<text text-anchor="start" x="138.75" y="-439.8" font-family="Times,serif" font-size="14.00"> </text>
<text text-anchor="start" x="121.828" y="-425.8" font-family="Times,serif" font-size="14.00">FMA1</text>
<text text-anchor="start" x="138.75" y="-411.8" font-family="Times,serif" font-size="14.00"> </text>
<text text-anchor="start" x="225.75" y="-433.3" font-family="Times,serif" font-size="14.00"> </text>
<text text-anchor="start" x="225.75" y="-412.3" font-family="Times,serif" font-size="14.00"> </text>
<text text-anchor="start" x="59.25" y="-391.8" font-family="Times,serif" font-size="14.00"> &#160;&#160;</text>
<polygon fill="none" stroke="black" points="72,-386 72,-406 99,-406 99,-386 72,-386"/>
<text text-anchor="start" x="76.5552" y="-391.8" font-family="Times,serif" font-size="14.00"> i1 </text>
<text text-anchor="start" x="100.75" y="-391.8" font-family="Times,serif" font-size="14.00"> &#160;&#160;</text>
<polygon fill="none" stroke="black" points="113,-386 113,-406 136,-406 136,-386 113,-386"/>
<text text-anchor="start" x="115.555" y="-391.8" font-family="Times,serif" font-size="14.00"> i2 </text>
<text text-anchor="start" x="137.75" y="-391.8" font-family="Times,serif" font-size="14.00"> &#160;&#160;</text>
<polygon fill="none" stroke="black" points="150,-386 150,-406 173,-406 173,-386 150,-386"/>
<text text-anchor="start" x="152.555" y="-391.8" font-family="Times,serif" font-size="14.00"> i3 </text>
<text text-anchor="start" x="174.75" y="-391.8" font-family="Times,serif" font-size="14.00"> &#160;&#160;</text>
<polygon fill="none" stroke="black" points="187,-386 187,-406 210,-406 210,-386 187,-386"/>
<text text-anchor="start" x="189.555" y="-391.8" font-family="Times,serif" font-size="14.00"> i4 </text>
<text text-anchor="start" x="211.75" y="-391.8" font-family="Times,serif" font-size="14.00"> &#160;&#160;</text>
</g>
<!-- 23 -->
<g id="node3" class="node"><title>23</title>
<polygon fill="none" stroke="black" points="306.5,-345.5 223.5,-345.5 223.5,-248.5 306.5,-248.5 306.5,-345.5"/>
<text text-anchor="start" x="235.25" y="-326.3" font-family="Times,serif" font-size="14.00"> &#160;&#160;</text>
<polygon fill="none" stroke="black" points="249,-320 249,-341 277,-341 277,-320 249,-320"/>
<text text-anchor="start" x="252.5" y="-326.3" font-family="Times,serif" font-size="14.00"> o1 </text>
<text text-anchor="start" x="279.25" y="-326.3" font-family="Times,serif" font-size="14.00"> &#160;&#160;</text>
<polygon fill="none" stroke="black" points="232,-272 232,-320 292,-320 292,-272 232,-272"/>
<text text-anchor="start" x="260.25" y="-305.8" font-family="Times,serif" font-size="14.00"> </text>
<text text-anchor="start" x="235.166" y="-291.8" font-family="Times,serif" font-size="14.00">A664sw2</text>
<text text-anchor="start" x="260.25" y="-277.8" font-family="Times,serif" font-size="14.00"> </text>
<text text-anchor="start" x="293.75" y="-299.3" font-family="Times,serif" font-size="14.00"> </text>
<text text-anchor="start" x="293.75" y="-278.3" font-family="Times,serif" font-size="14.00"> </text>
<text text-anchor="start" x="235.25" y="-257.8" font-family="Times,serif" font-size="14.00"> &#160;&#160;</text>
<polygon fill="none" stroke="black" points="249,-252 249,-272 277,-272 277,-252 249,-252"/>
<text text-anchor="start" x="254.055" y="-257.8" font-family="Times,serif" font-size="14.00"> i1 </text>
<text text-anchor="start" x="279.25" y="-257.8" font-family="Times,serif" font-size="14.00"> &#160;&#160;</text>
</g>
<!-- 20 -->
<g id="node4" class="node"><title>20</title>
<polygon fill="none" stroke="black" points="294.5,-201.5 215.5,-201.5 215.5,-124.5 294.5,-124.5 294.5,-201.5"/>
<text text-anchor="start" x="226.25" y="-182.3" font-family="Times,serif" font-size="14.00"> &#160;&#160;</text>
<polygon fill="none" stroke="black" points="239,-176 239,-197 266,-197 266,-176 239,-176"/>
<text text-anchor="start" x="242" y="-182.3" font-family="Times,serif" font-size="14.00"> o1 </text>
<text text-anchor="start" x="267.75" y="-182.3" font-family="Times,serif" font-size="14.00"> &#160;&#160;</text>
<polygon fill="none" stroke="black" points="224,-128 224,-176 280,-176 280,-128 224,-128"/>
<text text-anchor="start" x="250.25" y="-161.8" font-family="Times,serif" font-size="14.00"> </text>
<text text-anchor="start" x="233.721" y="-147.8" font-family="Times,serif" font-size="14.00">ADC1</text>
<text text-anchor="start" x="250.25" y="-133.8" font-family="Times,serif" font-size="14.00"> </text>
<text text-anchor="start" x="281.75" y="-155.3" font-family="Times,serif" font-size="14.00"> </text>
<text text-anchor="start" x="281.75" y="-134.3" font-family="Times,serif" font-size="14.00"> </text>
</g>
<!-- 18 -->
<g id="node5" class="node"><title>18</title>
<polygon fill="none" stroke="black" points="175.5,-77.5 96.5,-77.5 96.5,-0.5 175.5,-0.5 175.5,-77.5"/>
<text text-anchor="start" x="107.25" y="-58.3" font-family="Times,serif" font-size="14.00"> &#160;&#160;</text>
<polygon fill="none" stroke="black" points="120,-52 120,-73 147,-73 147,-52 120,-52"/>
<text text-anchor="start" x="123" y="-58.3" font-family="Times,serif" font-size="14.00"> o1 </text>
<text text-anchor="start" x="148.75" y="-58.3" font-family="Times,serif" font-size="14.00"> &#160;&#160;</text>
<polygon fill="none" stroke="black" points="105,-4 105,-52 161,-52 161,-4 105,-4"/>
<text text-anchor="start" x="131.25" y="-37.8" font-family="Times,serif" font-size="14.00"> </text>
<text text-anchor="start" x="117.445" y="-23.8" font-family="Times,serif" font-size="14.00">IRU2</text>
<text text-anchor="start" x="131.25" y="-9.8" font-family="Times,serif" font-size="14.00"> </text>
<text text-anchor="start" x="162.75" y="-31.3" font-family="Times,serif" font-size="14.00"> </text>
<text text-anchor="start" x="162.75" y="-10.3" font-family="Times,serif" font-size="14.00"> </text>
</g>
<!-- 8 -->
<g id="node6" class="node"><title>8</title>
<polygon fill="none" stroke="black" points="175.5,-211.5 96.5,-211.5 96.5,-114.5 175.5,-114.5 175.5,-211.5"/>
<text text-anchor="start" x="107.25" y="-192.3" font-family="Times,serif" font-size="14.00"> &#160;&#160;</text>
<polygon fill="none" stroke="black" points="120,-186 120,-207 147,-207 147,-186 120,-186"/>
<text text-anchor="start" x="123" y="-192.3" font-family="Times,serif" font-size="14.00"> o1 </text>
<text text-anchor="start" x="148.75" y="-192.3" font-family="Times,serif" font-size="14.00"> &#160;&#160;</text>
<polygon fill="none" stroke="black" points="105,-138 105,-186 161,-186 161,-138 105,-138"/>
<text text-anchor="start" x="131.25" y="-171.8" font-family="Times,serif" font-size="14.00"> </text>
<text text-anchor="start" x="113.552" y="-157.8" font-family="Times,serif" font-size="14.00">DCM2</text>
<text text-anchor="start" x="131.25" y="-143.8" font-family="Times,serif" font-size="14.00"> </text>
<text text-anchor="start" x="162.75" y="-165.3" font-family="Times,serif" font-size="14.00"> </text>
<text text-anchor="start" x="162.75" y="-144.3" font-family="Times,serif" font-size="14.00"> </text>
<text text-anchor="start" x="107.25" y="-123.8" font-family="Times,serif" font-size="14.00"> &#160;&#160;</text>
<polygon fill="none" stroke="black" points="120,-118 120,-138 147,-138 147,-118 120,-118"/>
<text text-anchor="start" x="124.555" y="-123.8" font-family="Times,serif" font-size="14.00"> i1 </text>
<text text-anchor="start" x="148.75" y="-123.8" font-family="Times,serif" font-size="14.00"> &#160;&#160;</text>
</g>
<!-- 16 -->
<g id="node7" class="node"><title>16</title>
<polygon fill="none" stroke="black" points="78.5,-77.5 -0.5,-77.5 -0.5,-0.5 78.5,-0.5 78.5,-77.5"/>
<text text-anchor="start" x="10.25" y="-58.3" font-family="Times,serif" font-size="14.00"> &#160;&#160;</text>
<polygon fill="none" stroke="black" points="23,-52 23,-73 50,-73 50,-52 23,-52"/>
<text text-anchor="start" x="26" y="-58.3" font-family="Times,serif" font-size="14.00"> o1 </text>
<text text-anchor="start" x="51.75" y="-58.3" font-family="Times,serif" font-size="14.00"> &#160;&#160;</text>
<polygon fill="none" stroke="black" points="8,-4 8,-52 64,-52 64,-4 8,-4"/>
<text text-anchor="start" x="34.25" y="-37.8" font-family="Times,serif" font-size="14.00"> </text>
<text text-anchor="start" x="20.4448" y="-23.8" font-family="Times,serif" font-size="14.00">IRU1</text>
<text text-anchor="start" x="34.25" y="-9.8" font-family="Times,serif" font-size="14.00"> </text>
<text text-anchor="start" x="65.75" y="-31.3" font-family="Times,serif" font-size="14.00"> </text>
<text text-anchor="start" x="65.75" y="-10.3" font-family="Times,serif" font-size="14.00"> </text>
</g>
<!-- 5 -->
<g id="node8" class="node"><title>5</title>
<polygon fill="none" stroke="black" points="78.5,-211.5 -0.5,-211.5 -0.5,-114.5 78.5,-114.5 78.5,-211.5"/>
<text text-anchor="start" x="10.25" y="-192.3" font-family="Times,serif" font-size="14.00"> &#160;&#160;</text>
<polygon fill="none" stroke="black" points="23,-186 23,-207 50,-207 50,-186 23,-186"/>
<text text-anchor="start" x="26" y="-192.3" font-family="Times,serif" font-size="14.00"> o1 </text>
<text text-anchor="start" x="51.75" y="-192.3" font-family="Times,serif" font-size="14.00"> &#160;&#160;</text>
<polygon fill="none" stroke="black" points="8,-138 8,-186 64,-186 64,-138 8,-138"/>
<text text-anchor="start" x="34.25" y="-171.8" font-family="Times,serif" font-size="14.00"> </text>
<text text-anchor="start" x="16.5518" y="-157.8" font-family="Times,serif" font-size="14.00">DCM1</text>
<text text-anchor="start" x="34.25" y="-143.8" font-family="Times,serif" font-size="14.00"> </text>
<text text-anchor="start" x="65.75" y="-165.3" font-family="Times,serif" font-size="14.00"> </text>
<text text-anchor="start" x="65.75" y="-144.3" font-family="Times,serif" font-size="14.00"> </text>
<text text-anchor="start" x="10.25" y="-123.8" font-family="Times,serif" font-size="14.00"> &#160;&#160;</text>
<polygon fill="none" stroke="black" points="23,-118 23,-138 50,-138 50,-118 23,-118"/>
<text text-anchor="start" x="27.5552" y="-123.8" font-family="Times,serif" font-size="14.00"> i1 </text>
<text text-anchor="start" x="51.75" y="-123.8" font-family="Times,serif" font-size="14.00"> &#160;&#160;</text>
</g>
<!-- 2 -->
<g id="node9" class="node"><title>2</title>
<polygon fill="none" stroke="black" points="127.5,-613.5 48.5,-613.5 48.5,-516.5 127.5,-516.5 127.5,-613.5"/>
<text text-anchor="start" x="59.25" y="-594.3" font-family="Times,serif" font-size="14.00"> &#160;&#160;</text>
<polygon fill="none" stroke="black" points="72,-588 72,-609 99,-609 99,-588 72,-588"/>
<text text-anchor="start" x="75" y="-594.3" font-family="Times,serif" font-size="14.00"> o1 </text>
<text text-anchor="start" x="100.75" y="-594.3" font-family="Times,serif" font-size="14.00"> &#160;&#160;</text>
<polygon fill="none" stroke="black" points="57,-540 57,-588 113,-588 113,-540 57,-540"/>
<text text-anchor="start" x="83.25" y="-573.8" font-family="Times,serif" font-size="14.00"> </text>
<text text-anchor="start" x="65.1689" y="-559.8" font-family="Times,serif" font-size="14.00">vote&#45;ss</text>
<text text-anchor="start" x="83.25" y="-545.8" font-family="Times,serif" font-size="14.00"> </text>
<text text-anchor="start" x="114.75" y="-567.3" font-family="Times,serif" font-size="14.00"> </text>
<text text-anchor="start" x="114.75" y="-546.3" font-family="Times,serif" font-size="14.00"> </text>
<text text-anchor="start" x="59.25" y="-525.8" font-family="Times,serif" font-size="14.00"> &#160;&#160;</text>
<polygon fill="none" stroke="black" points="72,-520 72,-540 99,-540 99,-520 72,-520"/>
<text text-anchor="start" x="76.5552" y="-525.8" font-family="Times,serif" font-size="14.00"> i1 </text>
<text text-anchor="start" x="100.75" y="-525.8" font-family="Times,serif" font-size="14.00"> &#160;&#160;</text>
</g>
<!-- Result1 -->
<g id="node10" class="node"><title>Result1</title>
<polygon fill="none" stroke="black" points="128.487,-700 41.5133,-700 41.5133,-650 128.487,-650 128.487,-700"/>
<text text-anchor="middle" x="85" y="-684.8" font-family="Times,serif" font-size="14.00">Results</text>
<text text-anchor="middle" x="85" y="-670.8" font-family="Times,serif" font-size="14.00">loa=6.0e&#45;05</text>
<text text-anchor="middle" x="85" y="-656.8" font-family="Times,serif" font-size="14.00">ued=2.2e&#45;06</text>
</g>
</g>
</svg>
